<?xml version="1.0" encoding="UTF-8"?>
<svg version="1.1" xmlns="http://www.w3.org/2000/svg" width="400" height="400">
<path d="M0 0 C132 0 264 0 400 0 C400 132 400 264 400 400 C268 400 136 400 0 400 C0 268 0 136 0 0 Z " fill="#FEFEFE" transform="translate(0,0)"/>
<path d="M0 0 C0.91168945 -0.00367584 1.82337891 -0.00735168 2.76269531 -0.01113892 C13.17200701 -0.03302787 23.18669645 0.2861672 33.4375 2.3125 C34.69304687 2.53550781 35.94859375 2.75851563 37.2421875 2.98828125 C50.71322488 5.78189333 62.89403007 9.64663529 74.4375 17.3125 C75.06398438 17.71082031 75.69046875 18.10914062 76.3359375 18.51953125 C81.13721233 21.96816266 83.62859435 26.82351622 85.4375 32.3125 C86.1397145 38.22431981 86.09477889 44.0816105 86.03125 50.02734375 C86.02953632 51.73222265 86.02960719 53.43710418 86.03137207 55.14198303 C86.02972715 58.69493194 86.01117059 62.24724347 85.97949219 65.80004883 C85.93960431 70.35544934 85.93547641 74.91002532 85.94295502 79.46556759 C85.94602037 82.97686838 85.93392328 86.48798337 85.91682434 89.99923897 C85.90979515 91.67977294 85.90666971 93.36032793 85.90751648 95.04087639 C85.90572207 97.38172645 85.88437927 99.72157817 85.85742188 102.06225586 C85.86035248 102.75576645 85.86328308 103.44927704 85.86630249 104.1638031 C85.81567886 107.00753033 85.74049331 108.88449927 84.07141113 111.24220276 C81.73168571 112.77484527 80.16841041 112.73264006 77.4375 112.3125 C75.26823341 109.05860012 75.19669951 108.17854043 75.2421875 104.42578125 C75.25185547 103.0190918 75.25185547 103.0190918 75.26171875 101.58398438 C75.28685547 100.11928711 75.28685547 100.11928711 75.3125 98.625 C75.32152344 97.63693359 75.33054687 96.64886719 75.33984375 95.63085938 C75.3634157 93.19116235 75.39631978 90.75195303 75.4375 88.3125 C73.93123047 89.10914063 73.93123047 89.10914063 72.39453125 89.921875 C63.9319306 94.32388461 55.73470919 97.97966293 46.4375 100.3125 C45.35339844 100.58707031 44.26929688 100.86164063 43.15234375 101.14453125 C18.82002692 106.81555343 -8.94936912 107.80028491 -33.5625 103.3125 C-34.90996889 103.09130355 -36.25763389 102.87129919 -37.60546875 102.65234375 C-51.87029227 100.24914054 -65.40458216 96.41777856 -77.5625 88.3125 C-77.70886388 91.83288915 -77.79692023 95.35248695 -77.875 98.875 C-77.91689453 99.86564453 -77.95878906 100.85628906 -78.00195312 101.87695312 C-78.09580488 107.52682855 -77.8221977 111.51443534 -74.0847168 115.91967773 C-71.5642072 118.22593391 -68.89653612 119.62328315 -65.8125 121.0625 C-64.66265625 121.61421875 -63.5128125 122.1659375 -62.328125 122.734375 C-54.2227525 126.24178682 -46.21398214 128.07848844 -37.5 129.4375 C-36.46294922 129.60636719 -35.42589844 129.77523437 -34.35742188 129.94921875 C-23.26722563 131.73546469 -12.55142985 132.56774437 -1.32226562 132.83007812 C-0.24009766 132.86423828 0.84207031 132.89839844 1.95703125 132.93359375 C3.42813354 132.97117798 3.42813354 132.97117798 4.92895508 133.00952148 C7.4375 133.3125 7.4375 133.3125 10.4375 135.3125 C10.8125 137.75 10.8125 137.75 10.4375 140.3125 C8.88279661 142.33491277 7.98662874 143.20480114 5.45825195 143.70068359 C4.70503662 143.70406738 3.95182129 143.70745117 3.17578125 143.7109375 C2.3161377 143.71706055 1.45649414 143.72318359 0.57080078 143.72949219 C-0.82549561 143.70870605 -0.82549561 143.70870605 -2.25 143.6875 C-3.21953613 143.67879883 -4.18907227 143.67009766 -5.18798828 143.66113281 C-31.72807639 143.1428215 -54.99592923 137.47184768 -78.5625 125.3125 C-78.56880374 129.00153579 -78.50890057 132.68671431 -78.4375 136.375 C-78.44007812 137.41333984 -78.44265625 138.45167969 -78.4453125 139.52148438 C-78.28701556 145.75442658 -77.64839041 149.55974421 -73.11816406 154.00854492 C-69.83457635 156.76084279 -66.44293127 158.52016665 -62.5625 160.3125 C-61.69625 160.73402344 -60.83 161.15554687 -59.9375 161.58984375 C-42.10937981 169.38964633 -21.77704655 169.84082247 -2.6105957 170.62963867 C-1.89228073 170.66207169 -1.17396576 170.6945047 -0.43388367 170.72792053 C1.53380372 170.81522623 3.50200801 170.8906473 5.47021484 170.96533203 C8.4375 171.3125 8.4375 171.3125 10.4375 173.3125 C10.75 175.8125 10.75 175.8125 10.4375 178.3125 C5.51498164 181.5941789 -0.02562932 180.65036811 -5.8125 180.625 C-7.11413086 180.62008545 -8.41576172 180.6151709 -9.75683594 180.61010742 C-28.25027484 180.38962438 -50.47487806 179.55513819 -66.5625 169.3125 C-68.295 168.57 -68.295 168.57 -70.0625 167.8125 C-73.10445863 166.50880345 -75.75494022 165.04318754 -78.5625 163.3125 C-78.51035974 166.85534097 -78.4152229 170.39579315 -78.3125 173.9375 C-78.29832031 174.93652344 -78.28414062 175.93554688 -78.26953125 176.96484375 C-78.07456319 182.85287924 -77.71406794 186.79298373 -73.5625 191.3125 C-64.04839429 198.59961974 -53.08571056 201.76258773 -41.5625 204.3125 C-40.54373779 204.55009033 -40.54373779 204.55009033 -39.50439453 204.79248047 C-27.44109585 207.5278489 -15.25176532 207.76999872 -2.93481445 207.93457031 C-1.63761475 207.95745117 -0.34041504 207.98033203 0.99609375 208.00390625 C2.74877563 208.02239624 2.74877563 208.02239624 4.53686523 208.04125977 C7.4375 208.3125 7.4375 208.3125 10.4375 210.3125 C10.875 212.75 10.875 212.75 10.4375 215.3125 C8.02110338 217.83682501 6.61959828 218.29454665 3.109375 218.640625 C1.81515625 218.61484375 0.5209375 218.5890625 -0.8125 218.5625 C-1.52212891 218.54864258 -2.23175781 218.53478516 -2.96289062 218.52050781 C-5.16367155 218.46894221 -7.36257727 218.39213521 -9.5625 218.3125 C-10.80515625 218.2815625 -12.0478125 218.250625 -13.328125 218.21875 C-37.83548424 217.19333748 -63.63822947 213.02818276 -82.6875 196.53515625 C-88.77538607 189.31847463 -88.00248382 181.07188954 -87.98242188 172.14086914 C-87.98976817 170.5961801 -87.99835604 169.05149654 -88.00808716 167.50682068 C-88.03025131 163.32496435 -88.03323647 159.14330536 -88.03133965 154.96139836 C-88.03121972 151.46492666 -88.03979254 147.96849643 -88.04811716 144.4720363 C-88.06733233 136.22099394 -88.07024171 127.97005274 -88.06347656 119.71899414 C-88.05683473 111.21815617 -88.07971004 102.71775198 -88.11679029 94.21700197 C-88.14751395 86.90721679 -88.15884451 79.59757097 -88.15495348 72.28772253 C-88.15288898 67.92679512 -88.15831893 63.56620546 -88.18284607 59.20533943 C-88.2051554 55.10357133 -88.20320118 51.00250755 -88.18291855 46.90073586 C-88.17951601 45.39956868 -88.18456502 43.89835369 -88.19890213 42.39725113 C-88.28218265 33.02786681 -87.54638563 26.70058273 -81.04219818 19.66890049 C-71.42431223 10.03946173 -56.4589643 6.1086593 -43.5625 3.3125 C-42.81226563 3.14733887 -42.06203125 2.98217773 -41.2890625 2.81201172 C-27.65498929 -0.00030671 -13.85983189 0.02709337 0 0 Z " fill="#0C0C0C" transform="translate(193.5625,87.6875)"/>
<path d="M0 0 C1.65680283 -0.01210762 1.65680283 -0.01210762 3.34707642 -0.02445984 C5.67863413 -0.03825793 8.01021167 -0.04899909 10.34179688 -0.05688477 C12.719787 -0.06842367 15.09775084 -0.08890531 17.47558594 -0.1184082 C20.92140203 -0.16113479 24.36645173 -0.17725912 27.8125 -0.1875 C28.86795013 -0.20500809 29.92340027 -0.22251617 31.01083374 -0.24055481 C37.31212708 -0.22213998 42.35028031 0.44163218 47.5390625 4.23828125 C52.06516763 9.80887218 52.66052258 13.95932444 52.70019531 20.9753418 C52.70764267 21.97865791 52.70764267 21.97865791 52.71524048 23.00224304 C52.72981489 25.20983929 52.73665751 27.41736359 52.7421875 29.625 C52.74794448 31.16713969 52.75370214 32.70927938 52.75946045 34.25141907 C52.76995817 37.48524304 52.77580832 40.71904225 52.77929688 43.95288086 C52.78476762 48.07731519 52.80877015 52.20141707 52.83726883 56.32574749 C52.85598569 59.51297428 52.86110568 62.70012259 52.86263275 65.88739967 C52.86564134 67.40670392 52.87360857 68.92600738 52.88681793 70.44525719 C53.03760981 89.12748816 53.03760981 89.12748816 47.0390625 96.17578125 C43.15109268 99.38335635 41.14657016 100.48922275 36.15307617 100.51293945 C35.05150681 100.52247147 33.94993744 100.53200348 32.81498718 100.54182434 C31.62436172 100.54091293 30.43373627 100.54000153 29.20703125 100.5390625 C27.98252762 100.54334763 26.75802399 100.54763275 25.49641418 100.55204773 C22.90313333 100.55779601 20.30983634 100.55828765 17.71655273 100.55395508 C13.75281116 100.55080213 9.78982074 100.57422507 5.82617188 100.59960938 C3.30729261 100.60188303 0.78841133 100.60258556 -1.73046875 100.6015625 C-2.91502151 100.61077225 -4.09957428 100.61998199 -5.32002258 100.62947083 C-12.10800935 100.59141505 -17.07715543 100.29574471 -22.32421875 95.5546875 C-22.80246094 94.97589844 -23.28070313 94.39710938 -23.7734375 93.80078125 C-24.26457031 93.22457031 -24.75570312 92.64835937 -25.26171875 92.0546875 C-27.85877804 88.12103093 -27.60608384 83.93521642 -27.65380859 79.33349609 C-27.66198608 78.64671783 -27.67016357 77.95993958 -27.67858887 77.25234985 C-27.70335124 74.98464811 -27.71993882 72.71700877 -27.734375 70.44921875 C-27.73969868 69.67102406 -27.74502235 68.89282936 -27.75050735 68.09105301 C-27.77720431 63.96875241 -27.79658674 59.84648168 -27.81103516 55.72412109 C-27.82434751 52.32736115 -27.85215412 48.93120578 -27.89306641 45.53466797 C-27.94262757 41.41915985 -27.96718483 37.30419782 -27.97426224 33.18840408 C-27.98093676 31.62801775 -27.99605876 30.06764179 -28.02015305 28.50742722 C-28.15040747 19.55957197 -27.95280761 11.78923577 -22.4609375 4.23828125 C-16.33471842 -0.94544258 -7.60017235 0.05298918 0 0 Z " fill="#FAFAFA" transform="translate(241.4609375,211.76171875)"/>
<path d="M0 0 C2.61100928 -0.00964184 5.22120785 -0.04071489 7.83203125 -0.07226562 C28.19449275 -0.20062726 47.40839994 3.29211316 65.83203125 12.17773438 C66.49154785 12.48928467 67.15106445 12.80083496 67.83056641 13.12182617 C72.42280893 15.45238628 75.20573301 17.98597406 78.14453125 22.24023438 C78.29678427 26.57944553 77.82475772 28.47212024 74.9375 31.73242188 C66.35695044 39.43691533 56.12394374 42.51771608 45.11572266 44.82275391 C43.21697442 45.22489157 41.32690244 45.66734842 39.4375 46.11132812 C26.62170487 49.06447166 13.86920527 49.47949276 0.76953125 49.49023438 C0.02396973 49.49090912 -0.7215918 49.49158386 -1.48974609 49.49227905 C-23.77233779 49.46041785 -53.21799234 48.37676759 -71.17578125 33.29101562 C-74.16289916 30.2160413 -75.78716156 28.40145662 -76.04296875 24.05273438 C-72.76765518 16.29541277 -66.48557331 12.54040632 -58.890625 9.4375 C-48.45869448 5.4848511 -37.89888329 2.80022891 -26.85546875 1.24023438 C-26.19353516 1.14597168 -25.53160156 1.05170898 -24.84960938 0.95458984 C-16.60164749 -0.04858916 -8.2963392 0.01843631 0 0 Z " fill="#FBFBFB" transform="translate(190.85546875,96.759765625)"/>
<path d="M0 0 C1.60488281 0.87011719 1.60488281 0.87011719 3.2421875 1.7578125 C21.69674739 11.33520955 42.17238732 16.10313674 62.95703125 16.203125 C64.37069221 16.21167511 64.37069221 16.21167511 65.81291199 16.22039795 C67.80389298 16.22980385 69.79488923 16.23636429 71.78588867 16.24023438 C74.76575626 16.24984918 77.74490583 16.28087724 80.72460938 16.3125 C106.39343009 16.45403295 131.03726173 11.76055136 154 0 C154.08736736 3.72901814 154.14051482 7.45777165 154.1875 11.1875 C154.21263672 12.24259766 154.23777344 13.29769531 154.26367188 14.38476562 C154.27817383 15.91713867 154.27817383 15.91713867 154.29296875 17.48046875 C154.31653442 18.88655396 154.31653442 18.88655396 154.34057617 20.32104492 C153.93250397 23.5309204 152.92422454 25.41906549 151 28 C150.34 28 149.68 28 149 28 C149 28.66 149 29.32 149 30 C126.66355173 42.23752219 102.83442736 45.56222519 77.57128906 45.39111328 C74.73714712 45.37492659 71.90441379 45.39113216 69.0703125 45.41015625 C57.99665272 45.42259951 47.80036964 44.48181428 37 42 C35.5004601 41.70210165 34.00055909 41.40600258 32.5 41.11328125 C21.73813566 38.65102434 8.2976918 34.78557071 1 26 C-0.01973129 22.94080612 -0.11533602 20.87581975 -0.09765625 17.67578125 C-0.09443359 16.64775391 -0.09121094 15.61972656 -0.08789062 14.56054688 C-0.07951172 13.48869141 -0.07113281 12.41683594 -0.0625 11.3125 C-0.05798828 10.22904297 -0.05347656 9.14558594 -0.04882812 8.02929688 C-0.03703743 5.35280915 -0.02058063 2.67643223 0 0 Z " fill="#FAFAFA" transform="translate(115,138)"/>
<path d="M0 0 C1.65680283 -0.01210762 1.65680283 -0.01210762 3.34707642 -0.02445984 C5.67863413 -0.03825793 8.01021167 -0.04899909 10.34179688 -0.05688477 C12.719787 -0.06842367 15.09775084 -0.08890531 17.47558594 -0.1184082 C20.92140203 -0.16113479 24.36645173 -0.17725912 27.8125 -0.1875 C28.86795013 -0.20500809 29.92340027 -0.22251617 31.01083374 -0.24055481 C37.31212708 -0.22213998 42.35028031 0.44163218 47.5390625 4.23828125 C52.06516763 9.80887218 52.66052258 13.95932444 52.70019531 20.9753418 C52.70764267 21.97865791 52.70764267 21.97865791 52.71524048 23.00224304 C52.72981489 25.20983929 52.73665751 27.41736359 52.7421875 29.625 C52.74794448 31.16713969 52.75370214 32.70927938 52.75946045 34.25141907 C52.76995817 37.48524304 52.77580832 40.71904225 52.77929688 43.95288086 C52.78476762 48.07731519 52.80877015 52.20141707 52.83726883 56.32574749 C52.85598569 59.51297428 52.86110568 62.70012259 52.86263275 65.88739967 C52.86564134 67.40670392 52.87360857 68.92600738 52.88681793 70.44525719 C53.03760981 89.12748816 53.03760981 89.12748816 47.0390625 96.17578125 C43.15109268 99.38335635 41.14657016 100.48922275 36.15307617 100.51293945 C35.05150681 100.52247147 33.94993744 100.53200348 32.81498718 100.54182434 C31.62436172 100.54091293 30.43373627 100.54000153 29.20703125 100.5390625 C27.98252762 100.54334763 26.75802399 100.54763275 25.49641418 100.55204773 C22.90313333 100.55779601 20.30983634 100.55828765 17.71655273 100.55395508 C13.75281116 100.55080213 9.78982074 100.57422507 5.82617188 100.59960938 C3.30729261 100.60188303 0.78841133 100.60258556 -1.73046875 100.6015625 C-2.91502151 100.61077225 -4.09957428 100.61998199 -5.32002258 100.62947083 C-12.10800935 100.59141505 -17.07715543 100.29574471 -22.32421875 95.5546875 C-22.80246094 94.97589844 -23.28070313 94.39710938 -23.7734375 93.80078125 C-24.26457031 93.22457031 -24.75570312 92.64835937 -25.26171875 92.0546875 C-27.85877804 88.12103093 -27.60608384 83.93521642 -27.65380859 79.33349609 C-27.66198608 78.64671783 -27.67016357 77.95993958 -27.67858887 77.25234985 C-27.70335124 74.98464811 -27.71993882 72.71700877 -27.734375 70.44921875 C-27.73969868 69.67102406 -27.74502235 68.89282936 -27.75050735 68.09105301 C-27.77720431 63.96875241 -27.79658674 59.84648168 -27.81103516 55.72412109 C-27.82434751 52.32736115 -27.85215412 48.93120578 -27.89306641 45.53466797 C-27.94262757 41.41915985 -27.96718483 37.30419782 -27.97426224 33.18840408 C-27.98093676 31.62801775 -27.99605876 30.06764179 -28.02015305 28.50742722 C-28.15040747 19.55957197 -27.95280761 11.78923577 -22.4609375 4.23828125 C-16.33471842 -0.94544258 -7.60017235 0.05298918 0 0 Z M-17.4609375 14.23828125 C-18.20002526 17.56051046 -18.20002526 17.56051046 -18.07617188 21.24414062 C-18.08172089 21.9293428 -18.0872699 22.61454498 -18.09298706 23.32051086 C-18.10475364 25.5750729 -18.08054274 27.82761124 -18.0546875 30.08203125 C-18.05297548 31.65474353 -18.05304301 33.22745867 -18.05480957 34.8001709 C-18.05315805 38.09215696 -18.0344921 41.38346063 -18.00292969 44.67529297 C-17.96325204 48.88875385 -17.95888536 53.10132152 -17.96639252 57.31493378 C-17.96946638 60.56126038 -17.95732701 63.80738727 -17.94026184 67.05366516 C-17.93324524 68.60694628 -17.93010568 70.16025002 -17.93095398 71.71354675 C-17.92915023 73.88691888 -17.90772139 76.05923338 -17.88085938 78.23242188 C-17.87244019 79.46754517 -17.864021 80.70266846 -17.85534668 81.97521973 C-17.42813568 85.50966022 -16.58779527 87.41183554 -14.4609375 90.23828125 C-12.04347863 91.44701068 -10.4998709 91.37149072 -7.79931641 91.38354492 C-6.83136139 91.38992477 -5.86340637 91.39630463 -4.86611938 91.40287781 C-3.29270279 91.40454704 -3.29270279 91.40454704 -1.6875 91.40625 C-0.07456558 91.4112426 -0.07456558 91.4112426 1.57095337 91.41633606 C3.8490557 91.42140585 6.12716547 91.42374437 8.40527344 91.42358398 C11.89270268 91.42576787 15.37981438 91.44391608 18.8671875 91.46289062 C21.07812392 91.46582503 23.28906184 91.46780951 25.5 91.46875 C26.54489594 91.47593552 27.58979187 91.48312103 28.66635132 91.49052429 C30.12774033 91.48590935 30.12774033 91.48590935 31.61865234 91.48120117 C32.90199966 91.4833387 32.90199966 91.4833387 34.21127319 91.48551941 C36.8674912 91.20339832 38.33741942 90.7575733 40.5390625 89.23828125 C43.57446012 85.36106254 43.91744609 82.36034331 43.92724609 77.5078125 C43.93250305 76.85187103 43.93776001 76.19592957 43.94317627 75.52011108 C43.95632239 73.36342173 43.94765805 71.20747742 43.9375 69.05078125 C43.9395223 67.54532734 43.94243504 66.03987439 43.94619751 64.53442383 C43.95061354 61.38385667 43.94421329 58.23354519 43.93017578 55.08300781 C43.91308405 51.05118964 43.92292914 47.01997064 43.94089317 42.98817444 C43.95175068 39.88085441 43.94827571 36.77367567 43.9405098 33.66635132 C43.93851321 32.18004281 43.94094801 30.69372134 43.94794846 29.20742798 C43.9555957 27.12752463 43.94391464 25.04858207 43.92724609 22.96875 C43.92366592 21.19600708 43.92366592 21.19600708 43.92001343 19.38745117 C43.38197021 14.93966175 41.66399685 12.3632156 38.5390625 9.23828125 C36.31196335 8.91163045 36.31196335 8.91163045 33.7097168 8.93188477 C32.70494797 8.91589737 31.70017914 8.89990997 30.66496277 8.88343811 C29.57540787 8.87807541 28.48585297 8.87271271 27.36328125 8.8671875 C25.68731621 8.85364479 25.68731621 8.85364479 23.97749329 8.83982849 C21.60945323 8.82529861 19.24137278 8.81643249 16.87329102 8.81274414 C13.25142528 8.80086281 9.63127072 8.75171368 6.00976562 8.70117188 C3.71094583 8.69170644 1.41211555 8.68447198 -0.88671875 8.6796875 C-1.97020096 8.66015518 -3.05368317 8.64062286 -4.16999817 8.62049866 C-5.18422348 8.62657639 -6.19844879 8.63265411 -7.2434082 8.63891602 C-8.57671928 8.63131004 -8.57671928 8.63131004 -9.93696594 8.62355042 C-13.67652713 9.53434656 -15.14992604 11.20853852 -17.4609375 14.23828125 Z " fill="#0D0D0D" transform="translate(241.4609375,211.76171875)"/>
<path d="M0 0 C1.0046933 -0.00637985 2.0093866 -0.0127597 3.04452515 -0.01933289 C4.67111557 -0.02100212 4.67111557 -0.02100212 6.33056641 -0.02270508 C7.44646149 -0.02603348 8.56235657 -0.02936188 9.71206665 -0.03279114 C12.07415352 -0.03785681 14.43624755 -0.04019957 16.79833984 -0.04003906 C20.41076471 -0.04222341 24.02288318 -0.06037731 27.63525391 -0.0793457 C29.92952369 -0.08228012 32.22379493 -0.08426459 34.51806641 -0.08520508 C35.59841156 -0.09239059 36.67875671 -0.09957611 37.7918396 -0.10697937 C38.80283722 -0.10390274 39.81383484 -0.10082611 40.85546875 -0.09765625 C41.7413266 -0.09908127 42.62718445 -0.10050629 43.53988647 -0.10197449 C46.34341915 0.17338249 48.50143116 0.98801496 51.05712891 2.14526367 C50.39712891 4.12526367 49.73712891 6.10526367 49.05712891 8.14526367 C43.16283118 9.46862858 37.38002449 9.15675124 31.38525391 8.98901367 C29.70710602 8.95003967 29.70710602 8.95003967 27.99505615 8.91027832 C24.43225999 8.82731412 20.86970659 8.73710499 17.30712891 8.64526367 C12.60412423 8.52473853 7.90102414 8.41111928 3.19775391 8.30151367 C2.11133606 8.27134155 1.02491821 8.24116943 -0.09442139 8.21008301 C-1.59673309 8.17509705 -1.59673309 8.17509705 -3.12939453 8.1394043 C-4.0128656 8.11640259 -4.89633667 8.09340088 -5.80657959 8.06970215 C-7.99665751 7.99910787 -7.99665751 7.99910787 -9.94287109 9.14526367 C-9.94287109 8.15526367 -9.94287109 7.16526367 -9.94287109 6.14526367 C-9.28287109 6.14526367 -8.62287109 6.14526367 -7.94287109 6.14526367 C-7.94287109 4.49526367 -7.94287109 2.84526367 -7.94287109 1.14526367 C-4.99796043 0.16362678 -3.07007461 0.01323414 0 0 Z " fill="#030303" transform="translate(234.94287109375,211.854736328125)"/>
<path d="M0 0 C1.7315332 0.0009668 1.7315332 0.0009668 3.49804688 0.00195312 C4.70396484 0.01806641 5.90988281 0.03417969 7.15234375 0.05078125 C8.96702148 0.04594727 8.96702148 0.04594727 10.81835938 0.04101562 C19.8229445 0.096382 19.8229445 0.096382 22.08984375 2.36328125 C22.40234375 5.36328125 22.40234375 5.36328125 22.08984375 8.36328125 C18.62888219 10.67058895 17.26043278 10.62022843 13.1796875 10.62890625 C11.4481543 10.63277344 11.4481543 10.63277344 9.68164062 10.63671875 C8.47572266 10.62898438 7.26980469 10.62125 6.02734375 10.61328125 C4.21266602 10.62488281 4.21266602 10.62488281 2.36132812 10.63671875 C1.20826172 10.63414062 0.05519531 10.6315625 -1.1328125 10.62890625 C-2.19250244 10.62665039 -3.25219238 10.62439453 -4.34399414 10.62207031 C-6.91015625 10.36328125 -6.91015625 10.36328125 -8.91015625 8.36328125 C-9.26311009 5.61024129 -9.38088081 4.03344674 -7.76000977 1.72583008 C-5.14033261 -0.20374867 -3.23016366 -0.00907694 0 0 Z " fill="#191919" transform="translate(247.91015625,271.63671875)"/>
<path d="M0 0 C1.20978516 -0.01611328 2.41957031 -0.03222656 3.66601562 -0.04882812 C4.81908203 -0.04947266 5.97214844 -0.05011719 7.16015625 -0.05078125 C8.74969116 -0.05525269 8.74969116 -0.05525269 10.37133789 -0.05981445 C11.64158813 0.1244812 11.64158813 0.1244812 12.9375 0.3125 C14.9375 3.3125 14.9375 3.3125 14.625 5.9375 C13.9375 8.3125 13.9375 8.3125 12.9375 9.3125 C8.65193207 9.5663237 4.35469147 9.497729 0.0625 9.5 C-1.75314453 9.51836914 -1.75314453 9.51836914 -3.60546875 9.53710938 C-4.76433594 9.53904297 -5.92320312 9.54097656 -7.1171875 9.54296875 C-8.18437012 9.54707764 -9.25155273 9.55118652 -10.35107422 9.55541992 C-13.0625 9.3125 -13.0625 9.3125 -16.0625 7.3125 C-16.4375 4.8125 -16.4375 4.8125 -16.0625 2.3125 C-11.1791904 -0.94303973 -5.73783488 -0.0153336 0 0 Z " fill="#0D0D0D" transform="translate(255.0625,241.6875)"/>
<path d="M0 0 C1.875 0.125 1.875 0.125 4 1 C6.29458238 5.58916476 5.98936713 9.05316434 5 14 C4.01 13.67 3.02 13.34 2 13 C2.020625 12.071875 2.04125 11.14375 2.0625 10.1875 C2.15769604 6.97713989 2.15769604 6.97713989 1 4 C0.34 3.67 -0.32 3.34 -1 3 C-0.67 2.01 -0.34 1.02 0 0 Z " fill="#040404" transform="translate(266,106)"/>
<path d="M0 0 C2.475 0.99 2.475 0.99 5 2 C4.00102287 4.99693138 3.34869747 6.02709413 1 8 C0.34 8 -0.32 8 -1 8 C-1.33 8.66 -1.66 9.32 -2 10 C-2.99 8.68 -3.98 7.36 -5 6 C-4.360625 5.566875 -3.72125 5.13375 -3.0625 4.6875 C-0.73253997 3.08760823 -0.73253997 3.08760823 0 0 Z " fill="#171717" transform="translate(285,215)"/>
<path d="M0 0 C1.98 0.99 3.96 1.98 6 3 C4.02 3.99 4.02 3.99 2 5 C1.67 10.94 1.34 16.88 1 23 C0.67 23 0.34 23 0 23 C0 15.41 0 7.82 0 0 Z " fill="#DCDCDC" transform="translate(115,175)"/>
<path d="M0 0 C0.66 0.66 1.32 1.32 2 2 C1.01 2.33 0.02 2.66 -1 3 C-1 9.27 -1 15.54 -1 22 C-1.33 22 -1.66 22 -2 22 C-2.25422542 18.7097621 -2.47409878 15.41811775 -2.6875 12.125 C-2.76033203 11.18785156 -2.83316406 10.25070312 -2.90820312 9.28515625 C-2.96298828 8.38925781 -3.01777344 7.49335938 -3.07421875 6.5703125 C-3.13182373 5.74289551 -3.18942871 4.91547852 -3.2487793 4.06298828 C-3.16668213 3.38220215 -3.08458496 2.70141602 -3 2 C-2.01 1.34 -1.02 0.68 0 0 Z " fill="#1B1B1B" transform="translate(116,248)"/>
<path d="M0 0 C0.66 0.99 1.32 1.98 2 3 C-0.97 5.475 -0.97 5.475 -4 8 C-4.33 7.01 -4.66 6.02 -5 5 C-4.34 5 -3.68 5 -3 5 C-2.5359375 4.0409375 -2.5359375 4.0409375 -2.0625 3.0625 C-1 1 -1 1 0 0 Z " fill="#D4D4D4" transform="translate(291,304)"/>
<path d="M0 0 C1.32 0.66 2.64 1.32 4 2 C3.67 2.99 3.34 3.98 3 5 C2.01 5.33 1.02 5.66 0 6 C-1 3 -1 3 0 0 Z " fill="#F0F0F0" transform="translate(257,128)"/>
</svg>
